<?xml version="1.0" standalone="no"?>
<!DOCTYPE svg PUBLIC "-//W3C//DTD SVG 20010904//EN"
 "http://www.w3.org/TR/2001/REC-SVG-20010904/DTD/svg10.dtd">
<svg version="1.0" xmlns="http://www.w3.org/2000/svg"
 width="1468.000000pt" height="1351.000000pt" viewBox="0 0 1468.000000 1351.000000"
 preserveAspectRatio="xMidYMid meet">
<metadata>
Created by potrace 1.16, written by Peter Selinger 2001-2019
</metadata>
<g transform="translate(0.000000,1351.000000) scale(0.100000,-0.100000)"
fill="#000000" stroke="none">
<path d="M2372 12900 c-13 -12 -22 -33 -22 -49 0 -33 37 -71 69 -71 28 0 71
42 71 70 0 28 -43 70 -73 70 -13 0 -33 -9 -45 -20z"/>
<path d="M4535 12596 c-41 -18 -83 -69 -90 -109 -3 -18 -4 -1205 -3 -2638 l3
-2606 27 -35 c56 -73 -35 -68 1252 -66 l1155 3 -142 63 c-78 34 -209 100 -290
145 -227 126 -321 204 -352 293 l-13 39 -723 3 c-655 2 -724 4 -741 19 -17 15
-18 102 -18 2255 0 2225 0 2238 20 2258 20 20 33 20 1343 20 1127 0 1326 -2
1343 -14 18 -14 19 -35 22 -782 1 -515 -1 -765 -8 -758 -26 26 -51 174 -60
354 -5 102 -16 221 -25 266 -56 294 -198 491 -418 581 -34 14 -138 41 -232 61
-330 68 -542 46 -752 -79 -79 -48 -205 -169 -258 -250 -56 -83 -85 -154 -136
-324 -21 -71 -47 -157 -58 -189 -12 -33 -20 -60 -19 -61 2 -1 23 -7 46 -14
l44 -12 141 95 c339 227 608 477 720 665 l26 45 6 -30 c116 -515 301 -929 504
-1128 l51 -50 27 26 c44 41 87 58 148 58 75 0 128 -28 165 -86 39 -62 44 -106
24 -193 -28 -128 -104 -187 -224 -179 l-67 5 -17 -96 c-44 -244 -82 -327 -201
-446 -58 -59 -102 -92 -160 -122 -67 -35 -108 -48 -231 -78 -8 -2 -39 -155
-32 -160 2 -1 56 -20 122 -43 120 -42 216 -95 334 -184 55 -42 69 -48 111 -48
90 0 256 35 414 87 16 5 17 -8 17 -173 l1 -179 84 -52 85 -52 0 280 0 281 50
55 c105 119 167 292 177 493 4 89 2 130 -11 180 -20 78 -83 199 -157 300 l-54
75 -5 1066 -5 1065 -25 37 c-13 20 -41 45 -61 56 -37 21 -43 21 -1440 21
-1145 -1 -1410 -3 -1434 -14z"/>
<path d="M8048 12510 c-43 -13 -84 -47 -102 -84 -14 -31 -16 -213 -16 -2046
l0 -2012 84 -87 c47 -47 102 -108 123 -135 l38 -49 9 26 c6 15 14 27 19 27 4
0 6 4 3 9 -3 5 1 26 10 47 27 69 106 224 114 224 4 0 10 8 12 18 9 32 131 183
216 268 l85 84 -231 0 c-196 0 -233 2 -246 16 -14 14 -16 183 -16 1710 0 1150
3 1702 10 1715 11 19 38 19 1497 19 l1485 0 -5 23 c-3 12 -14 54 -25 92 -11
39 -23 87 -27 108 l-6 37 -1502 -1 c-826 0 -1514 -4 -1529 -9z"/>
<path d="M12846 12498 c-20 -95 -31 -139 -47 -179 -10 -26 -15 -50 -12 -53 4
-3 140 -6 303 -6 217 0 299 -3 308 -12 9 -9 12 -404 12 -1714 0 -1534 -2
-1704 -16 -1718 -14 -14 -81 -16 -587 -16 l-572 0 0 333 0 332 -27 51 c-116
219 -427 217 -535 -4 -27 -55 -28 -64 -33 -250 -4 -166 -3 -192 10 -192 15 0
102 -42 195 -94 27 -16 97 -60 155 -100 l105 -71 -1045 -5 -1045 -5 -121 -37
c-488 -150 -844 -355 -1012 -583 l-44 -60 2333 -3 c1284 -1 2348 0 2366 3 41
7 92 50 109 92 21 49 21 4171 0 4211 -21 41 -68 81 -107 92 -19 6 -177 10
-361 10 l-328 0 -4 -22z"/>
<path d="M2698 12110 c-206 -33 -422 -141 -490 -244 -20 -30 -34 -37 -121 -61
-117 -33 -289 -115 -374 -179 -87 -66 -171 -161 -204 -231 -25 -52 -29 -72
-29 -148 0 -208 119 -589 234 -750 72 -102 162 -167 229 -167 53 0 71 28 75
118 3 63 8 82 27 102 50 55 60 88 59 200 -1 75 -7 122 -21 165 l-19 60 125 1
c145 0 281 26 526 97 251 74 384 135 487 227 l48 41 30 -47 c37 -60 56 -110
110 -296 42 -145 43 -146 67 -135 32 14 36 40 30 180 -7 161 -48 287 -125 376
l-29 35 19 48 c51 135 -4 267 -136 329 -34 16 -67 29 -74 29 -10 0 -12 11 -7
43 13 86 -48 159 -159 192 -64 19 -203 27 -278 15z"/>
<path d="M9580 11896 c-121 -27 -200 -63 -350 -161 -213 -137 -307 -183 -428
-205 -111 -20 -231 17 -325 101 l-46 40 -16 -38 c-29 -67 -55 -195 -61 -293
-11 -174 32 -302 138 -416 52 -56 61 -71 73 -127 7 -35 25 -92 40 -128 26 -62
106 -192 126 -204 5 -4 19 1 31 9 12 9 30 16 40 16 9 0 19 4 23 9 3 6 -17 67
-44 138 -27 70 -47 129 -46 131 2 2 30 -4 63 -12 78 -21 265 -21 373 0 376 70
772 269 1039 520 l66 63 46 -117 c30 -77 50 -116 59 -114 8 1 40 8 73 14 l59
13 -6 77 c-12 157 -88 321 -197 428 -76 74 -199 165 -278 204 -121 61 -312 83
-452 52z"/>
<path d="M5748 11141 c-39 -13 -88 -50 -88 -67 0 -26 30 -27 77 -4 39 19 54
22 107 15 104 -12 110 -11 114 7 7 38 -139 72 -210 49z"/>
<path d="M6072 10938 c-11 -29 -52 -134 -91 -233 -82 -207 -90 -239 -67 -286
26 -55 116 -104 116 -64 0 8 -13 21 -29 30 -68 35 -76 81 -32 188 87 211 151
381 151 398 0 38 -29 18 -48 -33z"/>
<path d="M6360 10965 c-16 -19 -6 -45 17 -45 10 0 41 -13 68 -28 38 -21 56
-39 76 -77 17 -34 32 -50 45 -50 46 0 13 103 -48 148 -71 53 -139 75 -158 52z"/>
<path d="M5693 10895 c-13 -9 -28 -33 -34 -54 -32 -106 65 -161 121 -69 53 87
-11 176 -87 123z"/>
<path d="M9853 10850 c-24 -10 -43 -26 -43 -34 0 -29 29 -33 88 -13 60 20 103
17 155 -10 34 -17 57 -11 57 16 0 55 -168 82 -257 41z"/>
<path d="M3205 10820 c-50 -24 -96 -25 -158 -3 -42 15 -49 15 -57 3 -14 -23
-8 -33 36 -55 83 -42 260 -9 252 48 -4 28 -24 30 -73 7z"/>
<path d="M2765 10751 c-3 -6 46 -113 110 -239 125 -250 135 -284 92 -325 -13
-12 -32 -27 -43 -33 -15 -10 -17 -14 -6 -25 30 -32 112 56 112 120 0 27 -32
99 -119 271 -66 129 -124 236 -129 238 -6 2 -13 -2 -17 -7z"/>
<path d="M6293 10720 c-30 -12 -63 -67 -63 -105 0 -89 101 -104 136 -20 20 50
17 83 -11 110 -26 27 -29 28 -62 15z"/>
<path d="M2454 10700 c-70 -35 -122 -96 -137 -160 -15 -63 39 -67 60 -4 16 48
51 83 113 116 30 16 45 30 45 43 0 28 -31 30 -81 5z"/>
<path d="M3119 10699 c-32 -32 -22 -104 20 -141 37 -33 64 -35 91 -8 36 36 19
119 -32 154 -31 22 -54 20 -79 -5z"/>
<path d="M9604 10667 c-5 -14 15 -81 128 -435 25 -77 58 -119 107 -132 46 -12
111 3 111 27 0 12 -8 14 -44 9 -49 -8 -89 6 -109 38 -8 12 -47 125 -86 251
-72 227 -93 276 -107 242z"/>
<path d="M9335 10649 c-54 -28 -93 -66 -117 -112 -24 -47 -21 -81 8 -85 17 -2
24 6 38 42 19 50 73 102 117 111 33 8 53 29 45 50 -8 21 -44 19 -91 -6z"/>
<path d="M5160 10454 c-93 -289 -104 -341 -104 -504 -1 -137 1 -150 30 -231
36 -102 103 -206 176 -275 l53 -50 105 9 c58 4 151 7 207 5 l101 -3 12 78 c6
44 13 84 16 91 2 6 -23 25 -58 43 -148 73 -256 181 -328 325 -74 150 -84 271
-40 482 27 134 27 146 -8 146 -15 0 -45 9 -67 20 -22 11 -40 20 -42 20 -1 0
-25 -70 -53 -156z"/>
<path d="M9927 10592 c-23 -25 -21 -80 3 -119 48 -79 143 -42 126 49 -14 73
-89 114 -129 70z"/>
<path d="M2565 10459 c-58 -46 -10 -168 67 -169 81 -1 72 149 -11 178 -25 9
-34 7 -56 -9z"/>
<path d="M9356 10368 c-40 -56 7 -158 72 -158 56 0 80 66 47 130 -27 53 -91
68 -119 28z"/>
<path d="M5815 10340 c-25 -40 39 -150 101 -176 99 -41 215 20 231 122 5 31 3
36 -12 33 -11 -3 -22 -17 -27 -34 -20 -79 -126 -120 -196 -75 -35 21 -62 72
-62 115 0 25 -23 35 -35 15z"/>
<path d="M2995 10079 c-27 -11 -83 -27 -125 -36 -41 -8 -85 -21 -97 -29 -48
-30 -14 -133 58 -181 57 -37 149 -44 206 -15 105 54 150 175 97 260 -18 28
-70 29 -139 1z"/>
<path d="M3394 9153 c14 -48 26 -159 26 -250 0 -125 -21 -188 -82 -252 -147
-153 -401 -115 -494 74 -21 43 -28 77 -34 158 -4 56 -13 130 -20 163 l-12 62
-87 -29 c-47 -16 -144 -58 -216 -93 -350 -173 -635 -425 -851 -752 l-65 -99
1227 -3 c1131 -2 1229 -1 1246 15 17 15 18 41 18 419 l0 402 -102 50 c-124 61
-254 105 -387 132 -128 26 -174 27 -167 3z"/>
<path d="M7330 7903 c0 -206 0 -206 -97 -213 l-68 -5 140 -47 c77 -25 152 -49
168 -52 l27 -6 0 178 0 179 -72 60 c-40 33 -79 63 -85 67 -10 6 -13 -29 -13
-161z"/>
<path d="M11028 7237 c-33 -28 -48 -58 -48 -97 0 -75 59 -126 137 -117 110 12
147 140 62 212 -41 34 -112 35 -151 2z"/>
<path d="M9190 6840 c-11 -7 -16 -34 -18 -110 l-4 -100 1946 0 1946 0 0 98 c0
63 -4 102 -12 110 -15 15 -3834 17 -3858 2z"/>
<path d="M1182 6788 c-17 -17 -17 -4839 0 -4856 9 -9 333 -12 1394 -12 778 0
1385 -4 1388 -9 3 -5 -47 -184 -111 -399 l-118 -391 -356 -3 -356 -3 -36 -28
c-57 -43 -81 -98 -81 -182 0 -109 53 -190 142 -215 54 -14 3093 -14 3147 1 51
14 116 81 133 136 33 109 -12 233 -100 279 -21 11 -85 14 -300 14 l-273 0
-128 391 c-70 215 -125 395 -121 400 3 5 442 9 1069 9 l1064 0 33 67 c18 37
57 93 86 125 l54 58 -970 0 -969 0 -6 172 c-3 95 -10 188 -15 206 -6 17 -9 32
-8 32 2 0 54 -13 117 -30 63 -16 159 -37 214 -46 126 -21 350 -20 467 0 394
71 743 379 871 771 41 125 58 243 57 411 0 320 -73 634 -250 1079 -111 278
-367 804 -432 887 -18 23 -55 50 -95 70 -57 28 -77 32 -139 32 -119 -1 -208
-56 -266 -167 -19 -35 -23 -57 -22 -132 l0 -90 135 -265 c317 -621 471 -1081
472 -1410 1 -195 -37 -300 -158 -428 -119 -126 -225 -172 -401 -172 -172 0
-332 40 -634 160 -232 91 -358 117 -535 108 l-103 -6 -10 37 c-25 80 -102 142
-204 161 l-51 10 -35 -40 c-46 -54 -97 -79 -192 -92 -140 -21 -284 17 -361 96
l-36 36 -54 -10 c-79 -15 -136 -55 -172 -119 -26 -45 -31 -68 -35 -138 l-5
-83 -36 0 c-180 0 -408 -114 -571 -287 -147 -155 -283 -393 -366 -637 l-39
-116 -237 0 c-131 0 -238 2 -238 4 0 2 16 55 35 117 88 284 85 443 -10 636
-25 51 -50 93 -55 93 -14 0 -13 -4 18 -57 73 -125 96 -223 90 -375 -5 -99 -32
-249 -46 -247 -4 0 -26 25 -50 55 -50 63 -221 216 -233 208 -5 -3 22 -31 59
-63 71 -61 222 -218 221 -229 0 -4 -10 -36 -22 -72 l-22 -65 -384 -3 -383 -2
6 22 c13 44 36 153 36 172 0 10 22 46 49 80 52 64 258 270 326 324 22 18 33
32 24 32 -28 0 -233 -191 -347 -324 -18 -21 -35 -37 -37 -35 -2 2 1 45 7 94 5
50 10 164 10 255 1 197 -13 275 -73 400 l-40 86 42 74 c23 41 64 112 92 158
27 45 47 85 44 88 -7 7 -85 -114 -144 -222 -24 -46 -46 -84 -48 -84 -8 0 -87
132 -109 181 -53 121 -61 302 -17 424 24 68 24 65 12 65 -15 0 -53 -134 -58
-211 -11 -156 28 -277 148 -455 126 -185 158 -332 139 -626 -10 -150 -28 -309
-36 -317 -2 -2 -7 5 -10 15 -43 122 -91 211 -180 339 -81 116 -111 152 -119
143 -4 -4 18 -37 48 -75 111 -137 198 -297 240 -438 13 -45 13 -56 -2 -105
l-17 -55 -68 -3 c-49 -2 -75 1 -92 13 -23 15 -24 20 -24 140 l0 124 -49 65
c-118 155 -112 343 11 362 l38 7 0 258 c0 177 -3 260 -11 265 -23 14 -89 128
-105 182 -24 82 -23 214 3 272 20 47 73 100 99 100 12 0 14 182 14 1295 0
1269 0 1294 19 1305 13 7 685 10 2100 10 l2080 0 -1 73 c0 39 3 91 7 115 l7
42 -2219 0 c-1713 0 -2222 -3 -2231 -12z"/>
<path d="M6015 6783 c6 -14 45 -197 45 -210 0 -2 7 -3 15 -3 19 0 19 4 0 68
-9 28 -13 62 -9 76 10 40 50 71 94 71 63 0 83 -30 120 -172 8 -32 16 -43 30
-43 15 0 20 7 20 26 0 38 50 84 93 84 43 0 84 -31 95 -73 l8 -32 709 -3 c642
-2 710 -4 727 -19 17 -15 18 -98 18 -2124 l0 -2108 33 10 c17 5 69 12 115 16
l82 6 0 2211 c0 1707 -3 2215 -12 2224 -9 9 -267 12 -1101 12 -1033 0 -1089
-1 -1082 -17z"/>
<path d="M2556 6414 c-144 -28 -325 -102 -436 -177 -136 -92 -232 -205 -304
-357 -113 -239 -136 -585 -54 -825 63 -183 153 -311 443 -625 161 -173 239
-274 297 -385 142 -270 118 -476 -67 -573 -39 -21 -64 -26 -115 -26 -79 1
-134 23 -214 89 -68 55 -68 50 -3 -84 102 -211 251 -351 442 -417 70 -24 95
-28 205 -28 238 -1 408 64 558 212 147 146 266 385 318 642 l18 86 -45 55
c-25 30 -74 109 -109 175 -34 65 -64 120 -65 122 -1 2 -18 -6 -36 -17 -49 -28
-93 -34 -148 -21 -139 33 -227 222 -162 348 26 51 104 106 136 97 104 -33 184
-6 278 94 35 37 87 103 116 147 65 97 197 363 247 499 51 138 103 351 110 451
l7 84 150 -156 c227 -235 367 -338 477 -351 75 -9 80 -1 63 105 -45 286 -151
476 -311 554 -63 31 -73 33 -172 33 -94 -1 -114 -4 -195 -34 -77 -29 -109 -35
-215 -41 l-125 -7 -95 69 c-180 130 -406 230 -594 263 -108 18 -305 18 -400
-1z"/>
<path d="M11641 5649 c-45 -14 -84 -40 -74 -50 12 -12 53 -14 105 -5 33 6 61
4 98 -7 57 -17 83 -13 78 12 -7 38 -139 70 -207 50z"/>
<path d="M4355 5431 c-40 -10 -88 -36 -105 -56 -11 -13 -11 -18 2 -31 13 -13
21 -11 72 12 49 22 66 25 109 20 94 -13 101 -12 105 7 3 12 -9 23 -40 37 -44
20 -90 24 -143 11z"/>
<path d="M11572 5398 c-48 -52 -51 -125 -7 -154 45 -29 103 15 112 85 11 79
-55 122 -105 69z"/>
<path d="M12157 5209 c-24 -14 -47 -62 -47 -99 0 -41 41 -84 73 -75 84 24 103
176 22 182 -17 2 -38 -2 -48 -8z"/>
<path d="M4050 5189 c0 -7 46 -87 102 -178 169 -274 168 -273 168 -309 0 -27
-8 -42 -35 -68 -39 -36 -44 -54 -17 -54 20 0 62 41 82 79 15 30 6 97 -19 136
-11 17 -70 113 -133 215 -101 164 -148 221 -148 179z"/>
<path d="M4404 5165 c-37 -57 22 -160 88 -153 95 9 54 178 -43 178 -19 0 -34
-8 -45 -25z"/>
<path d="M3815 4982 c-55 -40 -81 -71 -100 -114 -19 -47 -19 -87 0 -94 21 -8
45 14 45 41 0 34 40 87 95 123 28 19 50 41 50 50 0 29 -47 26 -90 -6z"/>
<path d="M3882 4894 c-17 -12 -22 -25 -22 -61 0 -38 5 -50 34 -79 39 -39 67
-43 97 -13 38 38 9 131 -49 158 -30 14 -33 14 -60 -5z"/>
<path d="M11703 4805 c-12 -9 -24 -31 -28 -54 -20 -119 84 -231 215 -231 85 0
190 93 190 169 0 53 -22 69 -113 81 -41 5 -110 18 -153 30 -93 24 -85 24 -111
5z"/>
<path d="M12246 3033 c92 -201 281 -722 309 -850 l7 -33 -1696 0 -1696 0 0
-209 c0 -115 4 -221 10 -235 l10 -26 1764 0 1765 0 3 93 c2 50 2 156 0 235
l-3 142 -68 0 -68 0 -18 63 c-81 294 -313 897 -344 897 -6 0 6 -35 25 -77z"/>
<path d="M13095 2707 c-27 -42 -64 -162 -84 -276 -33 -183 -45 -398 -37 -700
8 -344 12 -391 36 -391 15 0 17 6 13 38 -23 188 -25 689 -3 877 21 187 47 303
90 404 16 36 20 55 12 63 -7 7 -15 2 -27 -15z"/>
<path d="M13275 2719 c-4 -6 4 -36 19 -68 44 -99 78 -275 96 -496 9 -120 4
-612 -8 -737 -7 -70 -6 -78 9 -78 26 0 34 123 34 525 -1 281 -4 373 -18 468
-36 238 -103 434 -132 386z"/>
<path d="M8037 1966 c-81 -34 -138 -84 -178 -158 -32 -60 -34 -68 -34 -163 0
-118 21 -171 95 -245 72 -73 127 -94 240 -95 82 0 103 4 151 26 72 34 134 96
168 168 22 48 26 69 26 146 0 114 -24 173 -101 245 -73 69 -129 93 -229 97
-67 3 -89 0 -138 -21z"/>
<path d="M7770 1133 c0 -15 37 -68 70 -102 56 -56 135 -97 223 -115 25 -6 27
-10 27 -54 0 -44 -2 -49 -30 -59 -32 -12 -41 -48 -18 -71 9 -9 -19 -12 -128
-12 -127 0 -143 -2 -159 -20 -10 -11 -15 -28 -12 -39 4 -17 -4 -23 -47 -37
-28 -9 -72 -27 -97 -40 -47 -23 -109 -78 -109 -95 0 -5 271 -9 680 -9 645 0
680 1 671 18 -27 50 -95 92 -206 128 -58 18 -71 26 -73 45 -6 43 -27 49 -164
49 l-128 0 15 24 c15 23 15 26 -4 45 -12 12 -28 21 -36 21 -11 0 -15 12 -15
49 l0 50 61 17 c78 22 170 81 209 135 16 23 30 45 30 48 0 4 -34 -10 -75 -30
-98 -47 -177 -64 -300 -63 -139 1 -259 37 -357 106 -16 11 -28 16 -28 11z"/>
</g>
</svg>
